HIERARCHY
ROOT pelvis
{
  OFFSET 0 100 0
  CHANNELS 6 Xposition Yposition Zposition Zrotation Xrotation Yrotation
  JOINT pelvis_right_femur
  {
    OFFSET -10.78128 -3.44521 -0.5502486
    CHANNELS 3 Zrotation Xrotation Yrotation
    JOINT right_femur_tibia
    {
      OFFSET -0.8047443 -44.0398 -0.1307829
      CHANNELS 3 Zrotation Xrotation Yrotation
      JOINT right_tibia_foot
      {
        OFFSET 3.006224 -47.83518 -5
        CHANNELS 3 Zrotation Xrotation Yrotation
        End Site
        {
          OFFSET 0 -5 15
        }
      }
    }
  }
  JOINT pelvis_left_femur
  {
    OFFSET 10.78128 -3.44521 -0.5502486
    CHANNELS 3 Zrotation Xrotation Yrotation
    JOINT left_femur_tibia
    {
      OFFSET 0.8047443 -44.0398 -0.1307829
      CHANNELS 3 Zrotation Xrotation Yrotation
      JOINT left_tibia_foot
      {
        OFFSET -4.370144 -48.10324 -4.275266
        CHANNELS 3 Zrotation Xrotation Yrotation
        End Site
        {
          OFFSET 0 -5 15
        }
      }
    }
  }
  JOINT pelvis_spine1
  {
    OFFSET 0 6.468898 -3.129235
    CHANNELS 3 Zrotation Xrotation Yrotation
    JOINT spine1
    {
      OFFSET 0 23.15396 4.99043
      CHANNELS 3 Zrotation Xrotation Yrotation
      JOINT spine2
      {
        OFFSET 0 20.79997 -5.064912
        CHANNELS 3 Zrotation Xrotation Yrotation
        JOINT neck
        {
          OFFSET 0 14.38658 9.616178
          CHANNELS 3 Zrotation Xrotation Yrotation
          End Site
          {
            OFFSET 0 20 0
          }
        }
      }
      JOINT right_manubrium
      {
        OFFSET -5.722621 16.35077 3.967754
        CHANNELS 3 Zrotation Xrotation Yrotation
        JOINT right_clavicle
        {
          OFFSET -13.16364 1.694482 -4.693211
          CHANNELS 3 Zrotation Xrotation Yrotation
          JOINT right_humerus
          {
            OFFSET -28.5034 -0.3100689 -2.792744
            CHANNELS 3 Zrotation Xrotation Yrotation
            JOINT right_radius
            {
              OFFSET -25.15693 0.02248979 -1.271978
              CHANNELS 3 Zrotation Xrotation Yrotation
              End Site
              {
                OFFSET -15 0 0
              }
            }
          }
        }
      }
      JOINT left_manubrium
      {
        OFFSET 5.722621 16.35077 3.967754
        CHANNELS 3 Zrotation Xrotation Yrotation
        JOINT left_clavicle
        {
          OFFSET 13.16364 1.694482 -4.693211
          CHANNELS 3 Zrotation Xrotation Yrotation
          JOINT left_humerus
          {
            OFFSET 29.39168 -1.063119 -2.237045
            CHANNELS 3 Zrotation Xrotation Yrotation
            JOINT left_radius
            {
              OFFSET 24.59957 -0.9528479 0.9047498
              CHANNELS 3 Zrotation Xrotation Yrotation
              End Site
              {
                OFFSET 15 -0 -0
              }
            }
          }
        }
      }
    }
  }
}
MOTION
Frames: 15
Frame Time: 0.0416666666667
0 103.5113 0 -0.02380296 -0.4397217 0.2440016 4.527967 -17.41267 7.664393 -0 38.24774 -0 -8.060645 -13.60689 -2.640111 -6.529216 7.114179 -21.73328 -0 7.848678 -0 7.183935 -16.71986 23.90982 -1.819016 -2.775532 5.09516 3.188515 10.4324 -7.392047 0.3232862 20.96095 7.497046 3.896225 -28.31547 8.772089 5.161623 -21.62358 12.66238 84.84159 36.82297 -16.48185 -0 0 15.6644 -9.762634 9.510874 7.607937 5.461591 -20.93363 -1.385461 -96.05516 22.41576 27.7457 0 0 -14.1021 11.69573 16.66301 0.2945101
0.3782382 103.4447 1.827946 0.0138153 -0.3798251 0.5707717 4.348899 -19.56929 7.249217 -0 37.97927 -0 -7.85709 -12.5489 -2.823071 -6.518593 9.194436 -21.5867 -0 6.432043 -0 7.117902 -17.69594 23.53937 -1.779153 -2.804765 4.980122 3.244713 10.51983 -7.56706 0.3096737 20.91231 7.522445 3.903017 -28.32385 8.771593 5.099538 -21.46483 12.66778 85.36753 36.68457 -17.20215 -0 0 15.14251 -9.797558 9.593797 7.491213 5.528127 -21.25659 -1.517982 -95.55712 22.30014 27.08238 0 0 -14.90457 11.92669 16.59394 0.03389786
0.6815087 103.2624 3.826851 -0.06724284 -0.2477257 0.8944988 4.531559 -21.94614 6.823946 -0 35.2992 -0 -7.924453 -11.88361 -3.031431 -6.285024 11.10492 -21.11734 -0 6.805232 -0 6.796357 -18.32391 22.85783 -1.881361 -2.545472 4.740901 3.232945 10.32601 -7.747735 0.3779518 20.93252 7.524664 3.86591 -27.64992 8.688705 5.166665 -20.58962 12.48683 85.84909 36.4349 -18.14659 -0 0 14.18885 -10.13311 9.717961 7.382674 5.583538 -21.35014 -1.699981 -94.24803 22.85213 25.00833 0 0 -16.43449 10.92051 15.79773 1.188869
0.9082524 102.8861 6.044536 -0.1569358 -0.06892091 1.220281 4.653846 -24.59122 6.223064 -0 31.83001 -0 -7.955314 -11.15898 -3.220692 -6.011239 13.14222 -20.49457 -0 6.546819 -0 6.435856 -19.14025 22.06334 -1.917018 -2.470625 4.512792 3.310702 10.24306 -7.951771 0.3901697 20.9455 7.581072 3.886657 -27.50466 8.712814 5.193845 -20.08035 12.40652 86.41722 36.40269 -19.07669 -0 0 13.33634 -10.05956 9.721294 7.144824 5.682348 -21.60517 -1.807743 -93.46908 23.05826 23.72003 0 0 -17.52929 10.85301 15.58089 1.266627
1.0504 102.2918 8.539589 -0.2724996 0.05950441 1.517758 4.82235 -26.92522 5.562873 -0 27.50105 -0 -8.00972 -10.52402 -3.400879 -5.675425 14.80425 -19.62052 -0 6.927632 -0 5.878517 -19.74246 21.11347 -1.976945 -2.367158 4.279085 3.383666 10.10461 -8.13072 0.4104924 20.98202 7.640634 3.909844 -27.32607 8.743727 5.253759 -19.52031 12.3054 86.90419 36.42127 -19.92797 -0 0 12.50151 -9.950574 9.688906 6.898336 5.777354 -21.78658 -1.884653 -92.71467 23.35348 22.40518 0 0 -18.54296 10.68261 15.34499 1.461109
1.111837 101.4682 11.39569 -0.3754661 0.06058498 1.776723 4.923906 -28.81259 4.797787 -0 22.88441 -0 -7.980309 -9.764976 -3.59053 -5.329809 16.10865 -18.46292 -0 7.764592 -0 5.082072 -20.16613 20.00616 -2.019675 -2.302338 4.043592 3.475592 9.997309 -8.324396 0.4188196 21.01177 7.710742 3.943297 -27.24876 8.792894 5.299989 -19.02751 12.22575 87.44339 36.46046 -20.81856 -0 0 11.66161 -9.773748 9.642034 6.624939 5.883287 -22.02089 -1.957245 -92.03397 23.5601 21.20766 0 0 -19.52169 10.70361 15.21638 1.435583
1.103192 100.4695 14.67627 -0.4467493 -0.1387404 1.986674 4.977176 -29.92762 4.051022 -0 18.71832 -0 -7.857395 -8.869781 -3.809292 -5.0179 16.89386 -17.10226 -0 9.57748 -0 4.042793 -20.23254 18.81935 -2.060875 -2.235937 3.82627 3.556493 9.894505 -8.501431 0.4286152 21.0399 7.773108 3.971761 -27.15852 8.834331 5.34384 -18.56108 12.14868 87.93972 36.48127 -21.63906 -0 0 10.88434 -9.62611 9.602312 6.377955 5.979165 -22.23121 -2.0267 -91.38745 23.7488 20.07101 0 0 -20.43747 10.6913 15.07777 1.448404
1.037794 99.40044 18.42199 -0.4744051 -0.5686027 2.141067 5.012167 -30.17269 3.421605 -0 15.55178 -0 -7.64209 -7.821253 -4.076876 -4.76408 17.15945 -15.63647 -0 12.64447 -0 2.799611 -19.86442 17.63004 -2.090792 -2.174821 3.641864 3.618846 9.820476 -8.660398 0.4388685 21.05556 7.819642 3.989394 -27.04813 8.857332 5.370216 -18.15247 12.08272 88.39184 36.4463 -22.37142 -0 0 10.20358 -9.552258 9.593588 6.182215 6.058442 -22.42819 -2.105903 -90.77771 23.87956 19.03307 0 0 -21.29052 10.64517 14.91666 1.500998
0.9266095 98.41253 22.62922 -0.4637843 -1.217056 2.229791 5.107242 -29.50656 3.041143 -0 13.73723 -0 -7.385915 -6.715789 -4.397955 -4.569707 16.89053 -14.20615 -0 17.25665 -0 1.440269 -18.97977 16.54761 -2.109526 -2.109593 3.514266 3.644407 9.779648 -8.780036 0.4539428 21.05541 7.837077 3.986709 -26.87565 8.845924 5.375042 -17.8212 12.02777 88.73616 36.32726 -22.92479 -0 0 9.696275 -9.613449 9.635743 6.07961 6.105871 -22.57629 -2.197167 -90.22233 23.9554 18.14304 0 0 -22.02465 10.48155 14.69035 1.690146
0.7744078 97.67717 27.25272 -0.4326542 -2.045247 2.233644 5.334766 -27.9264 2.993667 -0 13.27957 -0 -7.15561 -5.702334 -4.757954 -4.408054 16.04023 -12.91069 -0 23.56719 -0 0.05173147 -17.52731 15.66305 -2.11338 -2.040442 3.464636 3.620932 9.783221 -8.844409 0.4751571 21.03494 7.815641 3.957574 -26.62543 8.789864 5.350865 -17.60002 11.98852 88.92709 36.10456 -23.22635 -0 0 9.430763 -9.850682 9.743369 6.102583 6.110187 -22.6552 -2.301924 -89.75377 23.96436 17.47384 0 0 -22.58138 10.16852 14.38316 2.053367
0.5799927 97.35596 32.20808 -0.4069288 -2.993933 2.120059 5.736906 -25.37853 3.306066 -0 13.91322 -0 -7.023171 -4.991126 -5.11351 -4.22896 14.46068 -11.80737 -0 31.5114 -0 -1.279504 -15.47897 15.06105 -2.102722 -1.96639 3.51025 3.539218 9.831883 -8.834852 0.5038446 20.99524 7.749051 3.899127 -26.29118 8.685025 5.296757 -17.51631 11.96703 88.91372 35.77966 -23.1993 -0 0 9.472521 -10.28117 9.916672 6.27453 6.062409 -22.63585 -2.412677 -89.41897 23.91319 17.10605 0 0 -22.88065 9.683171 13.99196 2.617684
0.3411479 97.55444 37.38746 -0.4149595 -3.982008 1.844252 6.29189 -21.75064 3.905396 -0 15.06292 -0 -7.040739 -4.826873 -5.386849 -3.956617 11.89386 -10.87976 -0 40.56563 -0 -2.475827 -12.87601 14.80405 -2.079597 -1.88943 3.660467 3.396713 9.920439 -8.736804 0.5398424 20.94097 7.636534 3.813019 -25.88538 8.535158 5.215937 -17.59213 11.96462 88.66162 35.37158 -22.78959 -0 0 9.86682 -10.89214 10.14201 6.60298 5.958975 -22.49471 -2.516075 -89.27105 23.81566 17.11679 0 0 -22.84288 9.034249 13.53392 3.373563
0.06416544 98.25574 42.68832 -0.4791934 -4.886594 1.361276 6.892117 -16.99309 4.584833 -0 15.81134 -0 -7.209985 -5.44045 -5.466157 -3.495124 8.071029 -10.02701 -0 49.35906 -0 -3.45343 -9.935845 14.91024 -2.047682 -1.812563 3.914675 3.197238 10.03835 -8.543113 0.5819805 20.87902 7.482459 3.704381 -25.43173 8.349827 5.115388 -17.8363 11.9808 88.16074 34.90864 -21.97873 -0 0 10.62767 -11.64787 10.3966 7.079014 5.802069 -22.21822 -2.596762 -89.35251 23.68953 17.55451 0 0 -22.41192 8.251476 13.03703 4.28703
-0.2270468 99.26858 48.04989 -0.5973123 -5.552216 0.6537434 7.362053 -11.353 5.043694 -0 15.20588 -0 -7.442352 -6.900262 -5.243564 -2.7705 2.989553 -9.103629 -0 55.62651 -0 -4.11468 -7.137596 15.32232 -2.00934 -1.740297 4.26136 2.950389 10.17704 -8.2598 0.6280296 20.81447 7.294835 3.579862 -24.95784 8.140569 5.000966 -18.24152 12.01449 87.43958 34.41161 -20.80233 -0 0 11.7256 -12.50498 10.65924 7.679569 5.599618 -21.81501 -2.645936 -89.67372 23.5414 18.41428 0 0 -21.58877 7.381816 12.53 5.303945
-0.4926327 100.2721 53.46116 -0.7259606 -5.868387 -0.2389016 7.540702 -5.486003 5.075748 -0 13.09641 -0 -7.571388 -8.94892 -4.692935 -1.822175 -2.806869 -8.067494 -0 57.23841 -0 -4.36724 -5.08327 15.92729 -1.963949 -1.677643 4.678195 2.669947 10.33435 -7.908554 0.6752191 20.74825 7.083427 3.445735 -24.48627 7.917477 4.873734 -18.78152 12.06415 86.57021 33.88316 -19.35761 -0 0 13.082 -13.42675 10.91833 8.371508 5.364561 -21.32135 -2.66764 -90.19652 23.36033 19.61991 0 0 -20.4523 6.480561 12.03238 6.360248
